<svg width="1400" height="760" viewBox="0 0 1400 760" fill="none" xmlns="http://www.w3.org/2000/svg">
  <rect width="1400" height="760" rx="36" fill="url(#paint0_linear)"/>
  <rect x="80" y="84" width="368" height="256" rx="28" fill="#FFFFFF" fill-opacity="0.72"/>
  <rect x="102" y="108" width="324" height="210" rx="18" fill="#F6F2EA"/>
  <rect x="952" y="84" width="368" height="256" rx="28" fill="#FFFFFF" fill-opacity="0.72"/>
  <rect x="974" y="108" width="324" height="210" rx="18" fill="#EDF4FA"/>
  <rect x="420" y="460" width="560" height="180" rx="34" fill="#FFFFFF" fill-opacity="0.76"/>
  <path d="M287 227L543 380" stroke="#F2A541" stroke-width="6" stroke-linecap="round" stroke-dasharray="16 16"/>
  <path d="M1103 227L857 380" stroke="#F2A541" stroke-width="6" stroke-linecap="round" stroke-dasharray="16 16"/>
  <circle cx="228" cy="154" r="22" fill="#145C83"/>
  <circle cx="171" cy="223" r="18" fill="#ED7D3A"/>
  <circle cx="308" cy="214" r="14" fill="#1F9363"/>
  <circle cx="381" cy="176" r="11" fill="#145C83"/>
  <circle cx="1082" cy="150" r="22" fill="#145C83"/>
  <circle cx="1029" cy="221" r="18" fill="#ED7D3A"/>
  <circle cx="1166" cy="212" r="14" fill="#1F9363"/>
  <circle cx="1238" cy="174" r="11" fill="#145C83"/>
  <circle cx="700" cy="366" r="58" fill="#145C83" fill-opacity="0.12"/>
  <circle cx="700" cy="366" r="18" fill="#145C83"/>
  <circle cx="638" cy="426" r="16" fill="#ED7D3A"/>
  <circle cx="769" cy="427" r="16" fill="#1F9363"/>
  <circle cx="623" cy="332" r="12" fill="#145C83"/>
  <circle cx="781" cy="325" r="12" fill="#145C83"/>
  <path d="M700 366L638 426" stroke="#243447" stroke-width="5" stroke-linecap="round"/>
  <path d="M700 366L769 427" stroke="#243447" stroke-width="5" stroke-linecap="round"/>
  <path d="M700 366L623 332" stroke="#243447" stroke-width="5" stroke-linecap="round"/>
  <path d="M700 366L781 325" stroke="#243447" stroke-width="5" stroke-linecap="round"/>
  <text x="700" y="540" text-anchor="middle" fill="#142235" font-family="Avenir Next, Segoe UI, sans-serif" font-size="48" font-weight="700">
    Replace with your teaser figure
  </text>
  <text x="700" y="594" text-anchor="middle" fill="#506176" font-family="Avenir Next, Segoe UI, sans-serif" font-size="26">
    2D observations to lifted structure placeholder
  </text>
  <defs>
    <linearGradient id="paint0_linear" x1="70" y1="90" x2="1322" y2="684" gradientUnits="userSpaceOnUse">
      <stop stop-color="#FFF9EF"/>
      <stop offset="0.53" stop-color="#F7EEE1"/>
      <stop offset="1" stop-color="#E7F0F8"/>
    </linearGradient>
  </defs>
</svg>
